<?xml version="1.0" standalone="no"?>
<!DOCTYPE svg PUBLIC "-//W3C//DTD SVG 20010904//EN"
 "http://www.w3.org/TR/2001/REC-SVG-20010904/DTD/svg10.dtd">
<svg version="1.0" xmlns="http://www.w3.org/2000/svg"
 width="739.000000pt" height="206.000000pt" viewBox="0 0 739.000000 206.000000"
 preserveAspectRatio="xMidYMid meet">

<g transform="translate(0.000000,206.000000) scale(0.100000,-0.100000)"
fill="#1E4D2B" stroke="none">
<path d="M885 1736 c-46 -20 -94 -64 -115 -107 -19 -37 -20 -62 -20 -619 0
-551 1 -583 19 -618 20 -39 46 -66 96 -98 29 -18 54 -19 615 -19 580 0 585 0
625 22 46 25 76 55 99 101 16 30 17 89 16 608 0 372 -4 584 -11 602 -19 50
-61 94 -113 118 l-51 24 -565 0 c-443 -1 -571 -4 -595 -14z m615 -226 c4 0 59
-79 122 -175 358 -554 468 -728 464 -732 -8 -9 -99 -11 -138 -5 -39 7 -37 5
-379 535 -45 70 -83 127 -85 127 -3 0 -144 -229 -144 -235 0 -3 34 -5 76 -5
123 0 142 -27 79 -112 l-35 -48 -195 0 c-173 0 -195 2 -195 16 0 9 82 148 181
308 100 160 188 301 196 314 9 15 20 21 30 18 8 -3 18 -6 23 -6z m191 -784
c10 -20 7 -32 -17 -75 l-29 -51 -372 0 c-227 0 -373 4 -373 9 0 6 19 39 41 75
l41 66 349 0 349 0 11 -24z"/>
<path d="M4357 1340 c-90 -23 -145 -70 -178 -150 -19 -48 -20 -339 -1 -393 18
-50 56 -93 106 -120 33 -18 57 -22 131 -22 103 0 149 18 203 79 46 53 54 97
50 290 -3 166 -4 172 -30 218 -21 35 -41 53 -80 72 -60 28 -145 39 -201 26z
m133 -129 c44 -32 50 -56 50 -211 0 -198 -22 -239 -127 -240 -33 0 -50 7 -75
29 l-33 29 0 175 c0 161 2 177 20 197 45 51 113 60 165 21z"/>
<path d="M4957 1340 c-56 -14 -90 -35 -125 -74 -48 -55 -62 -118 -62 -282 0
-170 18 -236 75 -280 88 -67 242 -73 332 -12 38 26 81 106 85 158 l3 35 -61 3
-61 3 -12 -45 c-6 -27 -21 -53 -37 -65 -32 -25 -92 -28 -133 -6 -46 24 -56 63
-56 230 0 171 11 206 73 226 71 24 136 -9 153 -77 l11 -44 52 0 c75 0 80 6 67
72 -13 63 -58 124 -106 144 -43 18 -151 25 -198 14z"/>
<path d="M2704 1332 c-6 -4 -21 -38 -32 -77 -11 -38 -54 -186 -96 -327 -42
-141 -76 -259 -76 -262 0 -3 29 -6 64 -6 l64 0 17 70 17 70 108 0 107 0 14
-67 14 -68 68 -3 c62 -3 68 -1 63 15 -2 10 -27 99 -55 198 -28 99 -68 243 -89
320 l-40 140 -68 2 c-38 1 -74 -1 -80 -5z m115 -314 l29 -108 -78 0 -78 0 23
78 c13 42 31 104 41 137 19 69 11 82 63 -107z"/>
<path d="M3120 998 l0 -338 196 0 195 0 -3 53 -3 52 -127 3 -128 3 0 89 0 90
121 0 120 0 -3 52 -3 52 -115 0 -115 1 -3 83 -3 82 131 0 131 0 -3 57 -3 56
-192 1 -193 1 0 -337z"/>
<path d="M3614 1331 c-2 -2 -4 -154 -4 -338 l0 -333 65 0 65 0 0 125 0 125 38
0 37 0 64 -125 65 -125 74 0 c55 0 73 3 69 13 -3 6 -37 66 -76 132 -63 106
-69 121 -54 130 43 26 93 80 104 112 6 19 9 64 7 99 -3 50 -10 72 -34 106 -44
63 -89 76 -269 80 -81 2 -149 1 -151 -1z m301 -136 c20 -19 25 -34 25 -73 0
-73 -28 -96 -126 -100 l-74 -4 0 101 0 101 75 0 c67 0 79 -3 100 -25z"/>
<path d="M5370 998 l0 -338 195 0 195 0 0 55 0 55 -130 0 -130 0 0 90 0 90
120 0 120 0 0 50 c0 48 -1 50 -27 50 -16 1 -70 1 -120 1 l-93 0 0 85 0 84 130
0 130 0 0 55 c0 45 -3 55 -17 56 -10 0 -98 1 -196 2 l-177 2 0 -337z"/>
<path d="M5866 1332 c-3 -3 -6 -155 -6 -339 l0 -333 185 0 185 0 0 55 0 54
-116 3 -115 3 -2 280 -2 279 -62 2 c-34 1 -64 -1 -67 -4z"/>
<path d="M6310 995 l0 -335 185 0 185 0 0 55 0 55 -120 0 -120 0 0 280 0 280
-65 0 -65 0 0 -335z"/>
</g>
</svg>
